<?xml version="1.0" encoding="UTF-8"?>
<!-- Generator: Adobe Illustrator 14.0.0, SVG Export Plug-In . SVG Version: 6.00 Build 43363)  -->
<!DOCTYPE svg PUBLIC "-//W3C//DTD SVG 1.1//EN" "http://www.w3.org/Graphics/SVG/1.1/DTD/svg11.dtd">
<svg version="1.1" id="Ebene_1" xmlns="http://www.w3.org/2000/svg" xmlns:xlink="http://www.w3.org/1999/xlink" x="0px" y="0px" width="1024px" height="314px" viewBox="0 0 1024 314" enable-background="new 0 0 1024 314" xml:space="preserve"><script xmlns=""/><script xmlns=""/>
<path fill="#239CD3" d="M150.086,63.96C120.385,65.288,66.3,75.485,19.303,100.754l-20.39-40.341  c53.2-18.624,108.17-28.373,163.588-31.035l10.64-29.258h50.538l-10.197,27.925c133.001,20.837,154.724,73.151,154.724,108.618  c0,16.848-12.858,156.046-288.61,156.046H67.628L150.086,63.96z M126.592,268.774c119.695-15.072,172.895-78.026,172.895-121.914  c0-40.341-26.598-73.151-98.858-82.901L126.592,268.774z M472.829,239.959l-21.28,19.509  c-31.919,29.258-45.664,35.909-66.943,35.909c-16.4,0-41.669,0-41.669-47.439c0-63.387,62.063-111.274,101.077-111.274  c24.826,0,26.602,18.619,26.602,25.269c0,5.766-1.776,47.439-71.823,58.074v4.438c0,27.045,13.301,28.373,22.613,28.373  c5.76,0,16.4-1.328,36.794-18.624l14.629-12.849V239.959z M440.024,147.303c-5.318,0-28.816,16.843-38.57,62.069  c37.242-11.973,42.56-51.876,42.56-57.189C444.014,148.189,440.91,147.303,440.024,147.303z"/>
<path fill="#239CD3" d="M704.512,254.588c-27.921,36.352-58.96,40.789-68.71,40.789c-8.421,0-40.788-1.328-40.788-50.096  c0-3.984,0.442-8.864,0.442-10.636c0-1.338-1.328-2.666-5.322-2.666l-3.994-0.442c-1.771,0-3.089,0.886-7.084,9.307  c-27.045,54.976-59.85,54.533-68.276,54.533c-10.197,0-42.117-0.443-42.117-59.413c0-68.709,78.469-204.814,141.865-204.814  c19.509,0,19.951,15.962,19.951,23.941c0,15.515-9.749,51.872-74.483,62.069c-28.807,59.845-34.139,101.077-34.139,115.706  c0,30.587,15.967,30.587,18.633,30.587c13.734,0,28.807-19.499,28.807-31.915c0-10.645-22.608-13.744-22.608-47.882  c0-25.707,15.958-32.805,22.608-32.805c5.765,0,25.273,3.989,25.273,41.669c0,14.639-3.984,19.951-3.984,22.175  c0,1.328,0.434,2.656,2.204,3.099l3.108,0.443h3.109c36.342-69.605,84.233-78.912,100.624-78.912  c24.389,0,25.717,19.952,25.717,26.592c0,11.982-5.313,49.663-78.017,64.734c1.318,27.488,18.171,27.488,23.494,27.488  c6.197,0,21.722-3.552,40.336-25.274l22.607-58.96C785.203,39.576,845.049,31.15,856.579,31.15  c20.394,0,20.394,19.509,20.394,23.941c0,13.301-10.191,47.439-72.703,61.626c-12.416,24.379-21.289,48.314-28.825,77.141  c33.253-46.554,61.626-54.533,81.135-54.533c25.707,0,25.707,22.166,25.707,27.93c0,12.849-2.657,45.669-74.917,68.709  c4.869,38.133,16.399,46.111,23.493,46.111c6.208,0,19.065-2.213,32.81-38.122c32.367-84.234,97.535-104.628,126.341-104.628  c21.29,0,21.29,12.411,21.29,16.4c0,16.843-28.826,27.931-36.362,27.931c-1.771,0-3.099-0.442-3.541-1.328  c19.509-12.858,23.945-23.946,23.945-29.701c0-2.219,0-5.323-6.218-5.323c-27.92,0-70.933,60.741-70.933,83.348  c0,13.302,7.536,14.187,12.416,14.187c4.437,0,16.41,0.443,51.434-33.695c14.619-14.187,21.27-29.258,26.603-29.258  c4.427,0-6.218,17.737-12.416,34.58c-7.536,20.385-9.316,35.024-9.316,39.903c0,11.521,5.322,12.406,10.202,12.406  c10.635,0,21.27-14.187,25.717-14.629c1.771,0.885-25.717,41.674-56.313,41.231c-14.187,0-25.717-7.094-25.717-39.009  c-26.593,32.801-47.872,39.009-56.294,39.009c-10.192,0-21.723-7.094-24.831-27.931C837.955,306.896,819.342,314,806.483,314  c-17.286,0-34.139-13.301-49.21-62.964h-2.214l-13.301,41.674h-53.205L704.512,254.588z M608.314,39.134  c-16.41,0-49.652,65.167-49.652,67.386c0,2.214,0.442,2.656,1.328,2.656c13.301,0,51.866-41.227,51.866-64.725  C611.856,43.565,611.424,39.134,608.314,39.134z M650.432,216.465c15.957,0,48.314-38.132,48.314-61.625  c0-2.213-1.318-3.989-4.427-3.989c-17.296,0-46.102,55.422-46.102,62.958C648.218,215.58,649.104,216.465,650.432,216.465z   M798.938,225.772c32.367-15.515,32.819-31.915,32.819-34.139c0-2.656,0-12.416-14.187-12.416c-26.169,0-59.412,54.533-59.412,63.85  c0,1.771,0.886,2.214,0.886,2.214c1.328,0,3.552-1.328,6.208-3.1L798.938,225.772z M854.798,39.134  c-16.39,0-46.986,62.506-46.986,67.386c0,2.214,0.442,2.656,1.328,2.656c10.635,0,49.21-41.227,49.21-64.725  C858.35,43.565,857.907,39.134,854.798,39.134z"/>
</svg>