<?xml version="1.0" encoding="UTF-8" standalone="no"?>
<!-- Created with Inkscape (http://www.inkscape.org/) -->
<svg xmlns:svg="http://www.w3.org/2000/svg" xmlns="http://www.w3.org/2000/svg" xmlns:xlink="http://www.w3.org/1999/xlink" xmlns:inkscape="http://www.inkscape.org/namespaces/inkscape" version="1.0" width="1045.6299" height="262.55905" id="svg2"><script xmlns=""/><script xmlns=""/>
  <defs id="defs4">
    <linearGradient id="linearGradient8634">
      <stop id="stop8636" style="stop-color:#464648;stop-opacity:1" offset="0"/>
      <stop id="stop9100" style="stop-color:#464648;stop-opacity:1" offset="0.04910786"/>
      <stop id="stop9102" style="stop-color:#919294;stop-opacity:1" offset="0.09470124"/>
      <stop id="stop9104" style="stop-color:#464648;stop-opacity:1" offset="0.15467197"/>
      <stop id="stop9094" style="stop-color:#515153;stop-opacity:1" offset="0.90608072"/>
      <stop id="stop9096" style="stop-color:#919294;stop-opacity:1" offset="0.95977587"/>
      <stop id="stop8668" style="stop-color:#515153;stop-opacity:1" offset="0.98384809"/>
      <stop id="stop8642" style="stop-color:#515153;stop-opacity:1" offset="1"/>
      <stop id="stop8638" style="stop-color:#515153;stop-opacity:1" offset="1"/>
    </linearGradient>
    <linearGradient id="linearGradient8104">
      <stop id="stop8106" style="stop-color:#ffebe3;stop-opacity:1" offset="0"/>
      <stop id="stop8108" style="stop-color:#f39672;stop-opacity:1" offset="0.14676516"/>
      <stop id="stop8110" style="stop-color:#e2001a;stop-opacity:1" offset="0.36621189"/>
      <stop id="stop8116" style="stop-color:#cf001a;stop-opacity:1" offset="0.70826375"/>
      <stop id="stop8114" style="stop-color:#af0819;stop-opacity:1" offset="0.84236193"/>
      <stop id="stop8112" style="stop-color:#b30414;stop-opacity:1" offset="1"/>
    </linearGradient>
    <linearGradient id="linearGradient8074">
      <stop id="stop8076" style="stop-color:#ffebe3;stop-opacity:1" offset="0"/>
      <stop id="stop8078" style="stop-color:#f39672;stop-opacity:1" offset="0.14676516"/>
      <stop id="stop8080" style="stop-color:#e2001a;stop-opacity:1" offset="0.36621189"/>
      <stop id="stop8082" style="stop-color:#e1011b;stop-opacity:1" offset="1"/>
    </linearGradient>
    <linearGradient id="linearGradient6614">
      <stop id="stop6616" style="stop-color:#ffebe3;stop-opacity:1" offset="0"/>
      <stop id="stop6622" style="stop-color:#f39672;stop-opacity:1" offset="0.29618883"/>
      <stop id="stop6634" style="stop-color:#e2001a;stop-opacity:1" offset="0.6957103"/>
      <stop id="stop6618" style="stop-color:#e1011b;stop-opacity:1" offset="1"/>
    </linearGradient>
    <clipPath id="clipPath5666">
      <path d="M 0.06,841.98 L 595.38,841.98 L 595.38,0.06 L 0.06,0.06 L 0.06,841.98 z" id="path5668"/>
    </clipPath>
    <clipPath id="clipPath5658">
      <path d="M -0.138,841.445 L 595.138,841.445 L 595.138,-0.445 L -0.138,-0.445 L -0.138,841.445 z" id="path5660"/>
    </clipPath>
    <radialGradient cx="-15.762797" cy="5.373209" r="11.5015" fx="-15.762797" fy="5.373209" id="radialGradient6624" xlink:href="#linearGradient6614" gradientUnits="userSpaceOnUse" gradientTransform="matrix(0.7249045,-0.7851125,0.8348586,0.7708344,-9.1170539,-10.775906)"/>
    <filter id="filter7965">
      <feGaussianBlur id="feGaussianBlur7967" stdDeviation="2.5365493" inkscape:collect="always"/>
    </filter>
    <radialGradient cx="-15.762797" cy="5.373209" r="11.5015" fx="-15.762797" fy="5.373209" id="radialGradient8072" xlink:href="#linearGradient8074" gradientUnits="userSpaceOnUse" gradientTransform="matrix(5.6732332,5.673233,6.0326993,-6.0326892,961.79362,-37.87169)"/>
    <radialGradient cx="-15.762797" cy="5.373209" r="11.5015" fx="-15.762797" fy="5.373209" id="radialGradient8102" xlink:href="#linearGradient8104" gradientUnits="userSpaceOnUse" gradientTransform="matrix(5.6732332,5.673233,6.0326993,-6.0326892,961.79363,-37.87169)"/>
    <linearGradient x1="921.27448" y1="14.045666" x2="1026.6995" y2="-57.260788" id="linearGradient8640" xlink:href="#linearGradient8634" gradientUnits="userSpaceOnUse" gradientTransform="translate(-42.675247,-101.41852)"/>
    <radialGradient cx="-15.762797" cy="5.373209" r="11.5015" fx="-15.762797" fy="5.373209" id="radialGradient9114" xlink:href="#linearGradient8104" gradientUnits="userSpaceOnUse" gradientTransform="matrix(5.6732332,5.673233,6.0326993,-6.0326892,961.79363,-37.87169)"/>
    <linearGradient x1="921.27448" y1="14.045666" x2="1026.6995" y2="-57.260788" id="linearGradient9116" xlink:href="#linearGradient8634" gradientUnits="userSpaceOnUse" gradientTransform="translate(-42.675247,-101.41852)"/>
    <radialGradient cx="-15.762797" cy="5.373209" r="11.5015" fx="-15.762797" fy="5.373209" id="radialGradient9189" xlink:href="#linearGradient8104" gradientUnits="userSpaceOnUse" gradientTransform="matrix(5.6732332,5.673233,6.0326993,-6.0326892,961.79363,-37.87169)"/>
    <linearGradient x1="921.27448" y1="14.045666" x2="1026.6995" y2="-57.260788" id="linearGradient9191" xlink:href="#linearGradient8634" gradientUnits="userSpaceOnUse" gradientTransform="translate(-42.675247,-101.41852)"/>
  </defs>
  <g transform="translate(-1035.8359,187.38691)" id="layer1" style="display:inline">
    <g transform="translate(35.491516,35.500575)" id="g9118">
      <g transform="matrix(4.8016629,0,0,-4.8016629,240.87309,102.6723)" id="g5654">
        <g clip-path="url(#clipPath5658)" id="g5656">
          <g id="g5662">
            <g clip-path="url(#clipPath5666)" id="g5664"/>
          </g>
        </g>
      </g>
      <g id="g6550" style="fill:#000000">
        <g transform="matrix(4.8016629,0,0,-4.8016629,1231.4657,-83.152054)" id="g5992" style="fill:#000000">
          <path d="M 0,0 L -3.424,0 L -3.424,8.848 L -9.559,8.848 L -9.559,3.634 C -9.559,1.607 -11.191,-0.026 -13.192,-0.026 L -13.192,16.274 C -13.192,18.249 -11.613,19.855 -9.585,19.855 L -9.559,19.855 L -9.559,11.482 L -3.424,11.482 L -3.424,16.406 C -3.424,18.302 -1.923,19.855 -0.027,19.855 L 0,19.855 L 0,0" id="path5994" style="fill:#000000;fill-opacity:1;fill-rule:nonzero;stroke:none"/>
        </g>
        <g transform="matrix(4.8016629,0,0,-4.8016629,1279.9673,-153.96218)" id="g5996" style="fill:#000000">
          <path d="M 0,0 L 3.318,0 L -2.713,-18.486 C -3.108,-19.697 -4.267,-20.593 -5.794,-20.593 L -6.925,-20.593 L -4.609,-13.93 L -9.217,0 L -5.478,0 L -2.817,-9.744 L 0,0" id="path5998" style="fill:#000000;fill-opacity:1;fill-rule:nonzero;stroke:none"/>
        </g>
        <g transform="matrix(4.8016629,0,0,-4.8016629,1338.4804,-118.30023)" id="g6000" style="fill:#000000">
          <path d="M 0,0 C 0,3.529 -1,5.189 -3.291,5.189 C -3.871,5.189 -4.319,5.109 -4.766,4.951 L -4.766,-5.081 C -4.424,-5.213 -4.028,-5.266 -3.529,-5.266 C -0.605,-5.266 0,-2.369 0,0 z M 3.502,0.106 C 3.502,-4.476 1,-7.53 -2.818,-7.53 C -3.581,-7.53 -4.266,-7.424 -4.766,-7.293 L -4.766,-9.847 C -4.766,-11.665 -6.241,-13.166 -8.057,-13.166 L -8.241,-13.166 L -8.241,6.347 L -8.163,6.4 C -6.872,7.084 -5.214,7.427 -3.213,7.427 C 0.974,7.427 3.502,4.662 3.502,0.106" id="path6002" style="fill:#000000;fill-opacity:1;fill-rule:nonzero;stroke:none"/>
        </g>
        <g transform="matrix(4.8016629,0,0,-4.8016629,1404.9738,-118.18019)" id="g6004" style="fill:#000000">
          <path d="M 0,0 C 0,1.501 -0.368,5.108 -3.133,5.108 C -5.978,5.108 -6.214,1.158 -6.214,0 C -6.214,-1.16 -5.978,-5.004 -3.133,-5.004 C -0.211,-5.004 0,-1.16 0,0 z M 3.266,-0.026 C 3.266,-4.583 0.816,-7.505 -3.133,-7.505 C -7.084,-7.505 -9.533,-4.583 -9.533,-0.026 C -9.533,4.581 -7.136,7.452 -3.133,7.452 C 0.869,7.452 3.266,4.581 3.266,-0.026" id="path6006" style="fill:#000000;fill-opacity:1;fill-rule:nonzero;stroke:none"/>
        </g>
        <g transform="matrix(4.8016629,0,0,-4.8016629,1487.3992,-178.48907)" id="g6008" style="fill:#000000">
          <path d="M 0,0 L -5.451,-17.538 C -5.873,-18.88 -7.19,-19.855 -8.69,-19.855 L -9.638,-19.855 L -15.905,0 L -12.165,0 L -7.795,-15.378 L -4.081,-2.343 C -3.687,-0.948 -2.265,0 -0.711,0 L 0,0" id="path6010" style="fill:#000000;fill-opacity:1;fill-rule:nonzero;stroke:none"/>
        </g>
        <g transform="matrix(4.8016629,0,0,-4.8016629,1523.1043,-127.40898)" id="g6012" style="fill:#000000">
          <path d="M 0,0 C -0.106,2.923 -1.922,3.239 -2.897,3.239 L -3.029,3.239 C -5.004,3.186 -5.925,1.79 -5.925,-0.816 L 0,0 z M 3.053,-2.001 L -5.715,-3.213 C -5.426,-5.609 -4.214,-6.873 -2.002,-6.873 C 0.448,-6.873 1.686,-6.083 2.58,-5.451 L 2.58,-8.374 C 1.686,-8.848 0.026,-9.427 -2.344,-9.427 C -6.636,-9.427 -9.191,-6.531 -9.191,-1.897 C -9.191,2.607 -6.82,5.53 -2.924,5.53 C 0.922,5.53 3.053,2.975 3.053,-1.448 L 3.053,-2.001" id="path6014" style="fill:#000000;fill-opacity:1;fill-rule:nonzero;stroke:none"/>
        </g>
        <g transform="matrix(4.8016629,0,0,-4.8016629,1567.7934,-153.96218)" id="g6016" style="fill:#000000">
          <path d="M 0,0 C 0.578,0 1.315,-0.053 1.975,-0.158 L 1.975,-2.976 C 0.763,-2.107 -0.843,-2.396 -1.554,-2.765 L -1.554,-11.428 C -1.554,-13.246 -3.055,-14.747 -4.871,-14.747 L -5.056,-14.747 L -5.056,-1.132 C -3.686,-0.474 -2.291,0 0,0" id="path6018" style="fill:#000000;fill-opacity:1;fill-rule:nonzero;stroke:none"/>
        </g>
        <g transform="matrix(4.8016629,0,0,-4.8016629,1618.9167,-127.40898)" id="g6020" style="fill:#000000">
          <path d="M 0,0 C -0.104,2.923 -1.922,3.239 -2.896,3.239 L -3.027,3.239 C -5.003,3.186 -5.925,1.79 -5.925,-0.816 L 0,0 z M 3.055,-2.001 L -5.713,-3.213 C -5.424,-5.609 -4.213,-6.873 -2,-6.873 C 0.448,-6.873 1.686,-6.083 2.582,-5.451 L 2.582,-8.374 C 1.686,-8.848 0.028,-9.427 -2.342,-9.427 C -6.635,-9.427 -9.189,-6.531 -9.189,-1.897 C -9.189,2.607 -6.819,5.53 -2.922,5.53 C 0.922,5.53 3.055,2.975 3.055,-1.448 L 3.055,-2.001" id="path6022" style="fill:#000000;fill-opacity:1;fill-rule:nonzero;stroke:none"/>
        </g>
        <g transform="matrix(4.8016629,0,0,-4.8016629,1654.862,-153.96218)" id="g6024" style="fill:#000000">
          <path d="M 0,0 L 0,-14.747 L -0.157,-14.747 C -2,-14.747 -3.476,-13.246 -3.476,-11.428 L -3.476,0 L 0,0 z M 0.185,3.344 C 0.185,2.396 -0.684,1.632 -1.737,1.632 C -2.79,1.632 -3.633,2.396 -3.633,3.344 C -3.633,4.318 -2.79,5.108 -1.737,5.108 C -0.684,5.108 0.185,4.318 0.185,3.344" id="path6026" style="fill:#000000;fill-opacity:1;fill-rule:nonzero;stroke:none"/>
        </g>
        <g transform="matrix(4.8016629,0,0,-4.8016629,1689.458,-153.96218)" id="g6028" style="fill:#000000">
          <path d="M 0,0 C 4.924,0 5.714,-2.765 5.714,-4.424 L 5.714,-14.747 L 5.555,-14.747 C 3.74,-14.747 2.185,-13.22 2.185,-11.402 L 2.185,-4.477 C 2.185,-3.503 1.79,-2.344 -0.132,-2.344 C -1.028,-2.344 -1.554,-2.449 -2.133,-2.66 C -2.133,-2.897 -2.133,-14.747 -2.133,-14.747 L -5.661,-14.747 L -5.661,-1.08 C -4.161,-0.422 -1.738,0 0,0" id="path6030" style="fill:#000000;fill-opacity:1;fill-rule:nonzero;stroke:none"/>
        </g>
        <g transform="matrix(4.8016629,0,0,-4.8016629,1765.1706,-103.26142)" id="g6032" style="fill:#000000">
          <path d="M 0,0 C 0,-2.317 -2.027,-4.398 -5.134,-4.398 C -6.793,-4.398 -8.216,-3.924 -9.057,-3.371 L -9.057,-0.422 C -8.057,-1.607 -6.714,-1.975 -5.555,-1.975 C -4.239,-1.975 -3.37,-1.212 -3.37,-0.053 C -3.37,1.157 -4.002,1.711 -5.451,2.291 C -8.136,3.318 -8.768,4.897 -8.768,6.372 C -8.768,8.636 -6.898,10.559 -4.186,10.559 C -2.58,10.559 -1.712,10.137 -0.79,9.558 L -0.79,6.899 C -1.712,8.004 -2.527,8.321 -3.527,8.321 C -4.844,8.321 -5.581,7.531 -5.581,6.53 C -5.581,5.371 -4.712,4.766 -3.449,4.265 C -0.71,3.132 0,1.658 0,0" id="path6034" style="fill:#000000;fill-opacity:1;fill-rule:nonzero;stroke:none"/>
        </g>
        <g transform="matrix(4.8016629,0,0,-4.8016629,1786.9893,-92.889827)" id="g6036" style="fill:#000000">
          <path d="M 0,0 C 0.342,-0.079 1.16,-0.132 1.659,-0.132 C 4.055,-0.132 5.241,1.686 5.241,4.95 C 5.241,7.953 4.24,10.323 1.423,10.323 C 0.922,10.323 0.448,10.217 0,10.086 L 0,0 z M 0,17.827 L 0,11.823 C 0.632,12.008 1.37,12.139 2.16,12.139 C 5.872,12.139 8.427,9.427 8.427,4.74 C 8.427,0.238 6.056,-2.238 1.897,-2.238 L 1.29,-2.238 C 0.185,-2.238 -2.448,-2.054 -3.475,-1.843 L -3.475,14.483 C -3.475,16.326 -2.001,17.827 -0.157,17.827 L 0,17.827" id="path6038" style="fill:#000000;fill-opacity:1;fill-rule:nonzero;stroke:none"/>
        </g>
        <g transform="matrix(4.8016629,0,0,-4.8016629,1868.8145,-119.952)" id="g6040" style="fill:#000000">
          <path d="M 0,0 C -3.081,-0.291 -4.95,-0.922 -4.95,-3.372 C -4.95,-5.188 -3.844,-6.005 -1.949,-6.005 C -1.211,-6.005 -0.342,-5.952 0,-5.873 L 0,0 z M 0,1.632 L 0,2.606 C 0,4.476 -1.159,4.976 -2.844,4.976 C -4.239,4.976 -5.635,4.45 -7.188,3.633 L -7.188,5.977 C -6.266,6.425 -4.529,7.083 -2.265,7.083 C 0.711,7.083 3.186,5.582 3.186,1.895 L 3.186,-7.479 C 2.211,-7.664 -0.053,-7.874 -1.422,-7.874 L -2.159,-7.874 C -6.056,-7.874 -8.084,-6.241 -8.084,-3.476 C -8.084,0.315 -4.397,1.211 0,1.632" id="path6042" style="fill:#000000;fill-opacity:1;fill-rule:nonzero;stroke:none"/>
        </g>
        <g transform="matrix(4.8016629,0,0,-4.8016629,1918.4493,-153.96218)" id="g6044" style="fill:#000000">
          <path d="M 0,0 C 4.925,0 5.715,-2.765 5.715,-4.424 L 5.715,-14.747 L 5.557,-14.747 C 3.74,-14.747 2.187,-13.22 2.187,-11.402 L 2.187,-4.477 C 2.187,-3.503 1.792,-2.344 -0.131,-2.344 C -1.026,-2.344 -1.553,-2.449 -2.132,-2.66 C -2.132,-2.897 -2.132,-14.747 -2.132,-14.747 L -5.661,-14.747 L -5.661,-1.08 C -4.16,-0.422 -1.737,0 0,0" id="path6046" style="fill:#000000;fill-opacity:1;fill-rule:nonzero;stroke:none"/>
        </g>
        <g transform="matrix(4.8016629,0,0,-4.8016629,1970.0239,-99.588146)" id="g6048" style="fill:#000000">
          <path d="M 0,0 C 0,-1.896 -1.474,-3.423 -3.449,-3.423 L -3.476,-3.423 L -3.476,13.009 C -3.476,14.905 -2.001,16.432 -0.026,16.432 L 0,16.432 L 0,4.478 L 4.372,10.955 L 7.663,10.955 L 3.16,4.372 L 8.426,-3.423 L 4.74,-3.423 L 0,3.872 L 0,0" id="path6050" style="fill:#000000;fill-opacity:1;fill-rule:nonzero;stroke:none"/>
        </g>
      </g>
      <g id="g6582">
        <g transform="matrix(4.8016629,0,0,-4.8016629,1180.3184,-6.9304574)" id="g6052">
          <path d="M 0,0 C -1.56,0 -2.549,1.02 -2.549,2.347 L -2.549,7.923 L -1.453,7.923 L -1.453,2.358 C -1.453,1.372 -0.751,0.817 0.06,0.817 C 0.858,0.817 1.561,1.372 1.561,2.358 L 1.561,7.923 L 2.562,7.923 L 2.562,2.347 C 2.562,1.02 1.573,0 0,0" id="path6054" style="fill:#e2001a;fill-opacity:1;fill-rule:nonzero;stroke:none"/>
        </g>
        <g transform="matrix(4.8016629,0,0,-4.8016629,1214.6983,-7.5354669)" id="g6056">
          <path d="M 0,0 L 0,4.386 C 0,4.952 -0.25,5.576 -1.346,5.576 C -1.941,5.576 -2.228,5.496 -2.561,5.361 L -2.561,0 L -3.61,0 L -3.61,5.791 C -3.037,6.052 -2.287,6.222 -1.263,6.222 C 0.525,6.222 1.049,5.281 1.049,4.408 L 1.049,0 L 0,0" id="path6058" style="fill:#e2001a;fill-opacity:1;fill-rule:nonzero;stroke:none"/>
        </g>
        <path d="M 1229.5163,-7.5354669 L 1224.4793,-7.5354669 L 1224.4793,-36.868826 L 1229.5163,-36.868826 L 1229.5163,-7.5354669 z M 1227.0002,-42.529986 C 1225.3388,-42.529986 1224.0232,-43.7256 1224.0232,-45.137289 C 1224.0232,-46.6114 1225.3388,-47.802212 1227.0002,-47.802212 C 1228.5992,-47.802212 1229.9148,-46.6114 1229.9148,-45.137289 C 1229.9148,-43.7256 1228.5992,-42.529986 1227.0002,-42.529986" id="path6060" style="fill:#e2001a;fill-opacity:1;fill-rule:nonzero;stroke:none"/>
        <g transform="matrix(4.8016629,0,0,-4.8016629,1247.9931,-6.9880773)" id="g6062">
          <path d="M 0,0 C -1.966,0 -3.074,1.802 -3.074,4.013 C -3.074,6.177 -1.977,8.025 0,8.025 C 0.728,8.025 1.239,7.843 1.597,7.594 L 1.334,6.982 C 1.084,7.13 0.703,7.288 0.191,7.288 C -1.381,7.288 -1.93,5.667 -1.93,4.013 C -1.93,2.323 -1.322,0.782 0.179,0.782 C 0.68,0.782 1.013,0.907 1.323,1.088 L 1.609,0.431 C 1.252,0.17 0.667,0 0,0" id="path6064" style="fill:#e2001a;fill-opacity:1;fill-rule:nonzero;stroke:none"/>
        </g>
        <g transform="matrix(4.8016629,0,0,-4.8016629,1269.9031,-33.714133)" id="g6066">
          <path d="M 0,0 C -0.524,0.146 -1.12,0.101 -1.466,-0.115 L -1.466,-5.452 L -2.514,-5.452 L -2.514,0.328 C -1.883,0.633 -1.275,0.792 0.251,0.759 L 0,0" id="path6068" style="fill:#e2001a;fill-opacity:1;fill-rule:nonzero;stroke:none"/>
        </g>
        <g transform="matrix(4.8016629,0,0,-4.8016629,1282.8387,-34.309539)" id="g6070">
          <path d="M 0,0 C -0.93,0 -1.621,-0.714 -1.596,-2.369 L 1.477,-1.927 C 1.477,-0.544 0.916,0 0,0 z M -1.561,-2.901 C -1.443,-4.284 -0.763,-4.965 0.392,-4.965 C 1.119,-4.965 1.643,-4.795 1.977,-4.613 L 2.251,-5.271 C 1.857,-5.498 1.178,-5.69 0.309,-5.69 C -1.37,-5.69 -2.55,-4.682 -2.55,-2.505 C -2.55,-0.431 -1.478,0.646 0.035,0.646 C 1.572,0.646 2.501,-0.306 2.478,-2.346 L -1.561,-2.901" id="path6072" style="fill:#e2001a;fill-opacity:1;fill-rule:nonzero;stroke:none"/>
        </g>
        <g transform="matrix(4.8016629,0,0,-4.8016629,1314.9811,-33.81977)" id="g6074">
          <path d="M 0,0 C -0.262,0.068 -0.524,0.113 -0.797,0.113 C -2.287,0.113 -2.763,-1.111 -2.763,-2.438 C -2.763,-3.876 -2.239,-4.931 -0.929,-4.931 C -0.499,-4.931 -0.201,-4.885 0,-4.761 L 0,0 z M -0.977,-5.588 C -2.811,-5.588 -3.799,-4.363 -3.799,-2.516 C -3.799,-0.487 -2.667,0.691 -1.012,0.691 C -0.654,0.691 -0.344,0.646 0,0.555 L 0,3.423 L 1.038,3.423 L 1.038,-5.157 C 0.608,-5.407 -0.082,-5.588 -0.977,-5.588" id="path6076" style="fill:#e2001a;fill-opacity:1;fill-rule:nonzero;stroke:none"/>
        </g>
        <path d="M 1329.7414,-7.5354669 L 1324.7092,-7.5354669 L 1324.7092,-36.868826 L 1329.7414,-36.868826 L 1329.7414,-7.5354669 z M 1327.2253,-42.529986 C 1325.5639,-42.529986 1324.2531,-43.7256 1324.2531,-45.137289 C 1324.2531,-46.6114 1325.5639,-47.802212 1327.2253,-47.802212 C 1328.8243,-47.802212 1330.1447,-46.6114 1330.1447,-45.137289 C 1330.1447,-43.7256 1328.8243,-42.529986 1327.2253,-42.529986" id="path6078" style="fill:#e2001a;fill-opacity:1;fill-rule:nonzero;stroke:none"/>
        <g transform="matrix(4.8016629,0,0,-4.8016629,1343.8151,-7.2617721)" id="g6080">
          <path d="M 0,0 C -1.167,0 -1.596,0.794 -1.596,1.541 L -1.596,5.542 L -2.335,5.542 L -2.335,6.166 L -1.596,6.166 L -1.596,7.571 L -0.547,7.877 L -0.547,6.166 L 0.572,6.166 L 0.572,5.542 L -0.547,5.542 L -0.547,1.564 C -0.547,1.077 -0.321,0.679 0.262,0.679 C 0.369,0.679 0.465,0.703 0.572,0.725 L 0.572,0.09 C 0.453,0.057 0.262,0 0,0" id="path6082" style="fill:#e2001a;fill-opacity:1;fill-rule:nonzero;stroke:none"/>
        </g>
        <g transform="matrix(4.8016629,0,0,-4.8016629,1376.7064,-6.9880773)" id="g6084">
          <path d="M 0,0 C -1.906,0 -3.443,1.314 -3.443,4.07 C -3.443,6.665 -1.87,8.025 0,8.025 C 0.893,8.025 1.525,7.854 1.918,7.617 L 1.596,6.971 C 1.323,7.13 0.847,7.288 0.12,7.288 C -1.394,7.288 -2.311,6.245 -2.311,3.978 C -2.311,1.858 -1.298,0.725 -0.012,0.725 C 0.548,0.725 0.847,0.816 1.013,0.907 L 1.013,3.831 L -0.381,3.831 L -0.381,4.488 L 2.073,4.488 L 2.073,0.431 C 1.573,0.159 1.025,0 0,0" id="path6086" style="fill:#e2001a;fill-opacity:1;fill-rule:nonzero;stroke:none"/>
        </g>
        <g transform="matrix(4.8016629,0,0,-4.8016629,1403.1348,-33.714133)" id="g6088">
          <path d="M 0,0 C -0.524,0.146 -1.12,0.101 -1.466,-0.115 L -1.466,-5.452 L -2.514,-5.452 L -2.514,0.328 C -1.883,0.633 -1.275,0.792 0.251,0.759 L 0,0" id="path6090" style="fill:#e2001a;fill-opacity:1;fill-rule:nonzero;stroke:none"/>
        </g>
        <g transform="matrix(4.8016629,0,0,-4.8016629,1415.8976,-34.362358)" id="g6092">
          <path d="M 0,0 C -1.227,0 -1.466,-1.303 -1.466,-2.538 C -1.466,-3.774 -1.204,-5.009 0,-5.009 C 1.227,-5.009 1.453,-3.763 1.453,-2.538 C 1.453,-1.314 1.227,0 0,0 z M 0,-5.701 C -1.751,-5.701 -2.514,-4.33 -2.514,-2.538 C -2.514,-0.714 -1.74,0.635 -0.012,0.635 C 1.751,0.635 2.501,-0.714 2.501,-2.538 C 2.501,-4.33 1.738,-5.701 0,-5.701" id="path6094" style="fill:#e2001a;fill-opacity:1;fill-rule:nonzero;stroke:none"/>
        </g>
        <g transform="matrix(4.8016629,0,0,-4.8016629,1442.0427,-6.9304574)" id="g6096">
          <path d="M 0,0 C -1.61,0 -2.276,0.772 -2.276,1.996 L -2.276,6.235 L -1.228,6.235 L -1.228,1.961 C -1.228,1.248 -0.822,0.704 0.059,0.704 C 0.56,0.704 0.916,0.783 1.214,0.952 L 1.214,6.235 L 2.263,6.235 L 2.263,0.489 C 1.786,0.228 1.035,0 0,0" id="path6098" style="fill:#e2001a;fill-opacity:1;fill-rule:nonzero;stroke:none"/>
        </g>
        <g transform="matrix(4.8016629,0,0,-4.8016629,1466.6944,-34.530416)" id="g6100">
          <path d="M 0,0 C -0.393,0 -0.668,-0.069 -0.918,-0.17 L -0.918,-4.965 C -0.714,-5.044 -0.452,-5.102 -0.131,-5.102 C 1.168,-5.102 1.835,-4.138 1.835,-2.517 C 1.835,-0.964 1.358,0 0,0 z M 0.083,-5.713 C -0.286,-5.713 -0.679,-5.646 -0.918,-5.566 L -0.918,-8.06 L -1.953,-8.06 L -1.953,0.169 C -1.526,0.407 -0.87,0.6 0.048,0.6 C 1.859,0.6 2.883,-0.601 2.883,-2.471 C 2.883,-4.5 1.775,-5.713 0.083,-5.713" id="path6102" style="fill:#e2001a;fill-opacity:1;fill-rule:nonzero;stroke:none"/>
        </g>
      </g>
      <g transform="translate(164.40233,4.7821194e-6)" id="g9106" style="opacity:1">
        <path d="M 930.40228,-182.7543 C 899.88288,-182.7543 875.18353,-158.02367 875.18353,-127.5043 C 875.18353,-113.2745 880.55752,-100.29397 889.40228,-90.504299 C 889.04267,-89.998339 886.86937,-86.932059 886.80853,-86.848049 C 885.90101,-85.590009 884.11126,-83.535649 885.90228,-81.691799 C 887.6933,-79.852759 890.98063,-82.500589 892.15228,-83.379299 C 892.29733,-83.487639 894.17464,-84.899029 894.77728,-85.348049 C 904.39682,-77.217529 916.81161,-72.316799 930.40228,-72.316799 C 960.8976,-72.316799 985.62094,-97.013739 985.62094,-127.5043 C 985.62094,-137.64561 982.88474,-147.14985 978.12094,-155.3168 C 979.89764,-157.17113 980.93194,-158.71387 980.90224,-159.97305 C 980.83024,-162.60916 982.39744,-165.85198 970.9648,-167.0668 C 970.2878,-167.13899 969.5395,-167.20659 968.746,-167.2543 C 958.8148,-176.84337 945.29554,-182.7543 930.40228,-182.7543 z" id="path6719" style="opacity:0.58064515;fill:#00001a;fill-opacity:1;fill-rule:nonzero;stroke:none;filter:url(#filter7965)"/>
        <path d="M 981.88623,-132.14378 C 981.88623,-101.65322 957.16733,-76.93426 926.67193,-76.93426 C 896.15253,-76.93426 871.43361,-101.65322 871.43361,-132.14378 C 871.43361,-162.66315 896.15253,-187.38691 926.67193,-187.38691 C 957.16733,-187.38691 981.88623,-162.66315 981.88623,-132.14378" id="path8100" style="fill:url(#radialGradient9189);fill-opacity:1;fill-rule:nonzero;stroke:none"/>
        <path d="M 921.98075,-161.38591 C 923.13315,-160.50721 928.91435,-157.12203 930.64295,-156.04166 L 931.23355,-155.61911 L 931.52165,-156.04646 C 932.13147,-157.05961 932.37155,-157.87589 930.64295,-158.95627 C 928.91435,-160.04144 923.13315,-163.42182 921.98075,-164.30052 L 920.0937,-165.82745 C 920.80914,-163.84916 921.28931,-161.91409 921.98075,-161.38591" id="path7433" style="fill:#4b4b4d;fill-opacity:1;fill-rule:nonzero;stroke:none"/>
        <g transform="matrix(4.8016629,0,0,-4.8016629,923.16675,-147.4899)" id="g7639" style="fill:#ffffff">
          <path d="M 0,0 C 0,0 1.328,1.719 1.455,1.93 C 1.582,2.142 1.632,2.311 1.272,2.537 C 0.912,2.762 -0.292,3.466 -0.532,3.649 C -0.771,3.832 -0.729,4.509 -0.024,4.65 C 0.68,4.791 6.795,5.298 9.177,5.044 C 11.558,4.791 11.343,3.93 11.248,3.565 C 11.11,3.033 10.289,2.226 8.993,1.057 C 8.993,1.057 6.851,-0.93 5.288,-2.297 C 3.724,-3.663 -1.278,-7.875 -2.25,-8.637 C -3.223,-9.399 -6.992,-12.203 -7.237,-12.386 C -7.481,-12.569 -8.165,-13.12 -8.538,-12.737 C -8.911,-12.353 -8.538,-11.925 -8.349,-11.663 C -8.16,-11.402 -0.564,-0.676 0,0" id="path7641" style="fill:#ffffff;fill-opacity:1;fill-rule:nonzero;stroke:none"/>
        </g>
        <path d="M 976.47005,-168.5788 C 976.93585,-167.45521 977.35355,-165.30887 977.17585,-164.60783 C 976.51325,-162.05334 972.57105,-158.1784 966.34815,-152.56526 C 966.34815,-152.56526 956.06298,-143.02435 948.55798,-136.46048 C 941.04818,-129.90141 917.03026,-109.6768 912.36304,-106.01794 C 907.69103,-102.35907 889.59356,-88.895208 888.41715,-88.016504 C 887.52404,-87.344271 883.53866,-86.768072 881.78125,-86.816088 C 882.34785,-86.004607 883.361,-85.1163 884.40296,-84.098347 C 886.2516,-82.312129 889.47832,-84.900225 890.65473,-85.783731 C 891.82633,-86.662435 909.9286,-100.1359 914.59582,-103.78516 C 919.26303,-107.44403 943.28095,-127.66863 950.79075,-134.22771 C 958.29575,-140.79158 968.58095,-150.33248 968.58095,-150.33248 C 974.80385,-155.94563 978.20345,-158.99949 978.86605,-161.55397 C 979.17335,-162.73518 979.58635,-166.42286 976.47005,-168.5788" id="path8622" style="fill:url(#linearGradient9191);fill-opacity:1"/>
      </g>
    </g>
  </g>
  <g transform="translate(-173.98284,131.27613)" id="layer2" style="display:inline"/>
</svg>